<?xml version="1.0" standalone="no"?>
<!DOCTYPE svg PUBLIC "-//W3C//DTD SVG 20010904//EN"
 "http://www.w3.org/TR/2001/REC-SVG-20010904/DTD/svg10.dtd">
<svg version="1.0" xmlns="http://www.w3.org/2000/svg"
 width="840.000000pt" height="840.000000pt" viewBox="0 0 840.000000 840.000000"
 preserveAspectRatio="xMidYMid meet">
<metadata>
Created by potrace 1.11, written by Peter Selinger 2001-2013
</metadata>
<g transform="translate(0.000000,840.000000) scale(0.100000,-0.100000)"
fill="#000000" stroke="none">
<path d="M3603 8050 c-118 -54 -217 -172 -287 -342 -84 -203 -131 -394 -195
-791 -26 -157 -51 -276 -70 -329 -16 -46 -369 -1026 -785 -2178 l-757 -2095
-139 -275 c-240 -476 -392 -864 -441 -1124 -20 -107 -21 -129 -11 -208 28
-222 184 -408 366 -438 94 -15 153 5 238 79 186 165 490 793 925 1914 315 812
683 1874 1011 2917 137 433 153 488 261 866 228 803 321 1244 321 1517 0 152
-11 223 -48 301 -50 107 -119 165 -239 201 -65 20 -78 19 -150 -15z"/>
<path d="M6713 8057 c-123 -52 -198 -133 -273 -292 -86 -181 -155 -425 -200
-701 -69 -425 -25 -285 -451 -1464 -213 -591 -570 -1579 -792 -2195 l-405
-1120 -117 -228 c-171 -334 -276 -572 -371 -848 -71 -205 -87 -286 -88 -434
-1 -121 1 -134 27 -197 61 -142 158 -248 265 -288 78 -29 173 -31 227 -3 58
30 164 145 234 254 254 391 786 1679 1256 3039 581 1682 1014 3156 1089 3705
20 146 29 377 17 445 -32 190 -157 322 -329 345 -25 3 -53 -2 -89 -18z"/>
</g>
</svg>
